<svg width="20" height="20" viewBox="0 0 20 20" fill="none" xmlns="http://www.w3.org/2000/svg">
<path d="M19.0843 5.41825C18.8662 4.59707 18.2237 3.95033 17.4078 3.73085C15.929 3.33203 9.99907 3.33203 9.99907 3.33203C9.99907 3.33203 4.06921 3.33203 2.59036 3.73085C1.77449 3.95036 1.13192 4.59707 0.913828 5.41825C0.517578 6.90668 0.517578 10.0122 0.517578 10.0122C0.517578 10.0122 0.517578 13.1177 0.913828 14.6061C1.13192 15.4273 1.77449 16.0471 2.59036 16.2665C4.06921 16.6654 9.99907 16.6654 9.99907 16.6654C9.99907 16.6654 15.9289 16.6654 17.4078 16.2665C18.2237 16.0471 18.8662 15.4273 19.0843 14.6061C19.4806 13.1177 19.4806 10.0122 19.4806 10.0122C19.4806 10.0122 19.4806 6.90668 19.0843 5.41825ZM8.05966 12.8317V7.19262L13.0159 10.0122L8.05966 12.8317Z" fill="#F8F8F8"/>
</svg>
