<svg width="512" height="512" viewBox="0 0 512 512" fill="none" xmlns="http://www.w3.org/2000/svg">
<path d="M121.001 480C140.521 480 167.941 472.94 209.001 450C258.931 422 297.551 396.15 347.211 346.62C395.091 298.77 418.391 267.79 451.001 208.45C487.841 141.45 481.561 106.33 474.541 91.32C466.181 73.38 453.841 62.65 437.891 52C428.831 46.0644 419.244 40.9762 409.251 36.8C408.251 36.37 407.321 35.96 406.491 35.59C401.541 33.36 394.041 29.99 384.541 33.59C378.201 35.97 372.541 40.84 363.681 49.59C345.511 67.51 320.681 107.42 311.521 127.02C305.371 140.23 301.301 148.95 301.291 158.73C301.291 170.18 307.051 179.01 314.041 188.54C315.351 190.33 316.651 192.04 317.911 193.7C325.521 203.7 327.191 206.59 326.091 211.75C323.861 222.12 307.231 252.99 279.901 280.26C252.571 307.53 222.591 323.11 212.181 325.33C206.801 326.48 203.851 324.74 193.531 316.86C192.051 315.73 190.531 314.56 188.941 313.39C178.281 305.46 169.861 299.85 158.681 299.85H158.621C148.891 299.85 140.561 304.07 126.761 311.03C108.761 320.11 67.651 344.62 49.621 362.81C40.851 371.65 35.961 377.29 33.571 383.62C29.971 393.15 33.361 400.62 35.571 405.62C35.941 406.45 36.351 407.36 36.781 408.37C40.99 418.345 46.108 427.913 52.071 436.95C62.701 452.85 73.471 465.16 91.451 473.53C100.683 477.897 110.788 480.109 121.001 480Z" fill="white"/>
</svg>
