<svg width="18" height="18" viewBox="0 0 18 18" fill="none" xmlns="http://www.w3.org/2000/svg">
<g clip-path="url(#clip0_332_31)">
<mask id="mask0_332_31" style="mask-type:luminance" maskUnits="userSpaceOnUse" x="0" y="0" width="18" height="18">
<path d="M18 0H0V18H18V0Z" fill="white"/>
</mask>
<g mask="url(#mask0_332_31)">
<path d="M5.28125 7.02347C6.67889 10.0954 8.89951 12.3019 11.9715 13.6711C12.3759 12.7205 13.057 12.1103 14.0289 11.8407C16.1077 11.259 18.1154 12.8269 17.9948 14.9411C17.8955 16.6509 16.3134 18.2756 14.1353 17.8499C10.4107 17.1191 7.27484 15.3739 4.77753 12.5147C2.75556 10.1948 1.514 7.50591 1.03156 4.46941C0.790349 2.95825 1.96096 1.37615 3.54306 1.06398C5.05422 0.758916 6.50862 1.5677 7.02653 3.00082C7.56572 4.4836 6.95558 6.13664 5.60051 6.8603C5.50828 6.90996 5.40895 6.95253 5.28125 7.02347Z" fill="#65A147"/>
<path d="M3.83398 1C6.19509 1 7.61175 2.88889 6.66731 5.72222" stroke="#65A147" stroke-width="0.5"/>
<path d="M14.2227 11.8612C18.0004 11.389 18.0004 15.1668 17.5282 16.1112" stroke="#65A147" stroke-width="0.5"/>
</g>
</g>
<defs>
<clipPath id="clip0_332_31">
<rect width="18" height="18" fill="white"/>
</clipPath>
</defs>
</svg>
