<svg width="512" height="512" viewBox="0 0 512 512" fill="none" xmlns="http://www.w3.org/2000/svg">
<path d="M141.099 456.991C160.619 456.991 188.039 449.931 229.099 426.991C279.029 398.991 317.649 373.141 367.309 323.611C415.189 275.761 438.488 244.781 471.098 185.441C507.938 118.441 501.658 83.3207 494.638 68.3107C486.278 50.3707 473.938 39.6407 457.988 28.9907C448.929 23.0551 439.342 17.9669 429.349 13.7907C428.349 13.3607 427.419 12.9507 426.589 12.5807C421.639 10.3507 414.139 6.98072 404.639 10.5807C398.299 12.9607 392.639 17.8307 383.779 26.5807C365.609 44.5007 340.779 84.4107 331.619 104.011C325.469 117.221 321.399 125.941 321.389 135.721C321.389 147.171 327.149 156.001 334.139 165.531C335.449 167.321 336.749 169.031 338.009 170.691C345.619 180.691 347.289 183.581 346.189 188.741C343.959 199.111 327.329 229.981 299.999 257.251C272.669 284.521 242.689 300.101 232.279 302.321C226.899 303.471 223.949 301.731 213.629 293.851C212.149 292.721 210.629 291.551 209.039 290.381C198.379 282.451 189.959 276.841 178.779 276.841H178.719C168.989 276.841 160.659 281.061 146.859 288.021C128.859 297.101 87.7487 321.611 69.7187 339.801C60.9487 348.641 56.0587 354.281 53.6687 360.611C50.0687 370.141 53.4587 377.611 55.6687 382.611C56.0387 383.441 56.4487 384.351 56.8787 385.361C61.0877 395.336 66.2057 404.904 72.1687 413.941C82.7987 429.841 93.5687 442.151 111.549 450.521C120.781 454.888 130.886 457.1 141.099 456.991Z" fill="#65A147"/>
</svg>
