<svg width="18" height="18" viewBox="0 0 18 18" fill="none" xmlns="http://www.w3.org/2000/svg">
<g clip-path="url(#clip0_58_7225)">
<mask id="mask0_58_7225" style="mask-type:luminance" maskUnits="userSpaceOnUse" x="0" y="0" width="18" height="18">
<path d="M18 0H0V18H18V0Z" fill="white"/>
</mask>
<g mask="url(#mask0_58_7225)">
<mask id="mask1_58_7225" style="mask-type:luminance" maskUnits="userSpaceOnUse" x="0" y="0" width="18" height="18">
<path d="M18 0H0V18H18V0Z" fill="white"/>
</mask>
<g mask="url(#mask1_58_7225)">
<path d="M1.06058 0.353478C0.865323 0.158216 0.548741 0.158216 0.353478 0.353478C0.158216 0.54874 0.158216 0.865323 0.353478 1.06058L16.6169 17.324C16.8122 17.5193 17.1288 17.5193 17.324 17.324C17.5193 17.1288 17.5193 16.8122 17.324 16.6169L1.06058 0.353478Z" fill="#65A147"/>
<path d="M16.617 0.353478C16.8122 0.158216 17.1288 0.158216 17.3241 0.353478C17.5193 0.54874 17.5193 0.865323 17.3241 1.06058L1.06059 17.324C0.865323 17.5193 0.54874 17.5193 0.353478 17.324C0.158215 17.1288 0.158216 16.8122 0.353478 16.6169L16.617 0.353478Z" fill="#65A147"/>
</g>
</g>
</g>
<defs>
<clipPath id="clip0_58_7225">
<rect width="18" height="18" fill="white"/>
</clipPath>
</defs>
</svg>
