<svg width="18" height="18" viewBox="0 0 18 18" fill="none" xmlns="http://www.w3.org/2000/svg">
<g clip-path="url(#clip0_331_24)">
<mask id="mask0_331_24" style="mask-type:luminance" maskUnits="userSpaceOnUse" x="0" y="0" width="18" height="18">
<path d="M18 0H0V18H18V0Z" fill="white"/>
</mask>
<g mask="url(#mask0_331_24)">
<path d="M8.60512 0C11.8409 0.025006 14.5766 2.36557 15.1117 5.56134C15.3117 6.76663 15.0667 7.8869 14.6116 8.98717C13.9014 10.7076 12.9612 12.303 11.9109 13.8283C11.0057 15.1437 10.0505 16.424 9.11024 17.7093C8.83017 18.0944 8.38506 18.0944 8.09999 17.7243C6.4796 15.6538 4.96424 13.5133 3.67392 11.2177C3.04377 10.1024 2.47363 8.95216 2.15856 7.69686C1.83348 6.41655 2.02853 5.17125 2.55866 3.99096C3.53389 1.82544 5.2143 0.535129 7.54986 0.105025C7.89494 0.0450109 8.25003 0.0350085 8.60512 0ZM6.19953 6.01145C6.19953 7.32677 7.27479 8.40203 8.59511 8.40703C9.91043 8.41203 10.9957 7.33177 10.9957 6.01645C10.9957 4.69113 9.92543 3.61587 8.61012 3.61087C7.27479 3.61587 6.20454 4.68613 6.19953 6.01145Z" fill="#65A147"/>
<path d="M10 6C10 6.82843 9.32843 7.5 8.5 7.5C7.67157 7.5 7 6.82843 7 6C7 5.17157 7.67157 4.5 8.5 4.5C9.32843 4.5 10 5.17157 10 6Z" fill="#65A147"/>
</g>
</g>
<defs>
<clipPath id="clip0_331_24">
<rect width="18" height="18" fill="white"/>
</clipPath>
</defs>
</svg>
