<svg width="26" height="26" viewBox="0 0 26 26" fill="none" xmlns="http://www.w3.org/2000/svg">
<g clip-path="url(#clip0_137_2)">
<path d="M12.0116 24.7866C4.91699 14.5015 3.6001 13.4459 3.6001 9.66602C3.6001 4.48833 7.79741 0.291016 12.9751 0.291016C18.1528 0.291016 22.3501 4.48833 22.3501 9.66602C22.3501 13.4459 21.0332 14.5015 13.9386 24.7866C13.473 25.4592 12.4771 25.4591 12.0116 24.7866ZM12.9751 13.5723C15.1325 13.5723 16.8813 11.8234 16.8813 9.66602C16.8813 7.50864 15.1325 5.75977 12.9751 5.75977C10.8177 5.75977 9.06885 7.50864 9.06885 9.66602C9.06885 11.8234 10.8177 13.5723 12.9751 13.5723Z" fill="#65A147"/>
</g>
<defs>
<clipPath id="clip0_137_2">
<rect width="25" height="25" fill="white" transform="translate(0.475098 0.291016)"/>
</clipPath>
</defs>
</svg>
