<svg width="18" height="18" viewBox="0 0 18 18" fill="none" xmlns="http://www.w3.org/2000/svg">
<g clip-path="url(#clip0_332_39)">
<mask id="mask0_332_39" style="mask-type:luminance" maskUnits="userSpaceOnUse" x="0" y="0" width="18" height="18">
<path d="M18 0H0V18H18V0Z" fill="white"/>
</mask>
<g mask="url(#mask0_332_39)">
<path d="M1 5.93457C1.49429 6.25074 1.96187 6.55355 2.42499 6.85636C4.47342 8.18339 6.5263 9.51041 8.57028 10.8463C8.87309 11.0423 9.12246 11.0467 9.42527 10.8508C11.8789 9.24768 14.3415 7.65792 16.8041 6.06371C16.8575 6.02809 16.9154 5.99246 16.9911 5.94793C16.9955 6.01027 17 6.05926 17 6.10379C17 8.68213 17 11.256 17 13.8344C17 14.9566 16.1316 15.8294 15.0184 15.8294C11.0061 15.8338 6.99833 15.8338 2.98608 15.8294C1.86836 15.8249 1 14.9521 1 13.8299C1 11.2516 1 8.67768 1 6.09933C1 6.0548 1 6.01473 1 5.93457Z" fill="#65A147"/>
<path d="M9.00625 3C11.0057 3 13.0052 3 15.0046 3C15.9576 3 16.7458 3.63679 16.9462 4.54077C16.9684 4.64765 16.9417 4.70109 16.8571 4.75452C14.2743 6.42444 11.696 8.0988 9.11312 9.77317C9.03297 9.82661 8.97508 9.83106 8.89047 9.77762C6.30767 8.0988 3.72487 6.42444 1.13762 4.75007C1.05301 4.69663 1.03074 4.64765 1.05301 4.54968C1.24894 3.64125 2.04605 3.00445 3.00792 3C5.00736 3 7.00681 3 9.00625 3Z" fill="#65A147"/>
<path d="M1 5.28564L9 10.4285L17 5.28564" stroke="#F5F5F5" stroke-width="0.571429"/>
</g>
</g>
<defs>
<clipPath id="clip0_332_39">
<rect width="18" height="18" fill="white"/>
</clipPath>
</defs>
</svg>
