<svg width="24" height="24" viewBox="0 0 24 24" fill="none" xmlns="http://www.w3.org/2000/svg">
<path fill-rule="evenodd" clip-rule="evenodd" d="M18.3194 14.4331C19.5664 12.8255 20.1541 10.8031 19.9629 8.77757C19.7717 6.75199 18.8161 4.87533 17.2904 3.52936C15.7646 2.18339 13.7834 1.46922 11.7498 1.53215C9.71624 1.59508 7.783 2.43037 6.34341 3.8681C4.90256 5.30683 4.06454 7.24082 4.0001 9.27597C3.93567 11.3111 4.64968 13.2942 5.99663 14.8212C7.34359 16.3482 9.2221 17.3041 11.2494 17.4942C13.2767 17.6842 15.3001 17.0941 16.9074 15.8441L16.9504 15.8891L21.1924 20.1321C21.2853 20.225 21.3956 20.2987 21.517 20.349C21.6384 20.3993 21.7685 20.4252 21.8999 20.4252C22.0313 20.4252 22.1614 20.3993 22.2828 20.349C22.4042 20.2987 22.5145 20.225 22.6074 20.1321C22.7003 20.0392 22.774 19.9289 22.8243 19.8075C22.8746 19.6861 22.9005 19.556 22.9005 19.4246C22.9005 19.2932 22.8746 19.1631 22.8243 19.0417C22.774 18.9203 22.7003 18.81 22.6074 18.7171L18.3644 14.4751C18.3498 14.4607 18.3348 14.4467 18.3194 14.4331ZM16.2434 5.2831C16.808 5.83858 17.257 6.50035 17.5646 7.23024C17.8722 7.96013 18.0322 8.74369 18.0354 9.53572C18.0386 10.3278 17.885 11.1126 17.5834 11.845C17.2818 12.5773 16.8382 13.2427 16.2781 13.8028C15.718 14.3629 15.0526 14.8065 14.3203 15.1081C13.5879 15.4097 12.8031 15.5633 12.011 15.5601C11.219 15.5569 10.4354 15.3969 9.70554 15.0893C8.97565 14.7817 8.31389 14.3327 7.75841 13.7681C6.64832 12.6398 6.02906 11.1185 6.03551 9.53572C6.04195 7.9529 6.67358 6.43675 7.79282 5.31751C8.91205 4.19828 10.4282 3.56665 12.011 3.5602C13.5938 3.55376 15.1151 4.17302 16.2434 5.2831Z" fill="white"/>
</svg>
