<svg width="32" height="32" viewBox="0 0 32 32" fill="none" xmlns="http://www.w3.org/2000/svg">
<g clip-path="url(#clip0_29_705)">
<path d="M2.32966 20.7801L16.1558 7.15677L30.1277 20.6307C30.3773 20.8719 30.7114 21.0059 31.0586 21.004C31.4057 21.0021 31.7383 20.8646 31.9854 20.6207C32.105 20.5022 32.1997 20.3611 32.2641 20.2055C32.3285 20.05 32.3612 19.8832 32.3603 19.7148C32.3594 19.5465 32.3249 19.38 32.2588 19.2252C32.1928 19.0703 32.0965 18.9302 31.9756 18.8131L17.112 4.47631C16.851 4.2246 16.5019 4.08482 16.1393 4.08677C15.7767 4.08872 15.4292 4.23225 15.1709 4.48675L0.462276 18.9797C0.34182 19.0983 0.246333 19.2398 0.181454 19.3958C0.116574 19.5519 0.0836179 19.7194 0.0845267 19.8884C0.0854355 20.0574 0.120191 20.2245 0.186745 20.3799C0.253299 20.5352 0.350302 20.6757 0.472026 20.7929C0.72166 21.0341 1.05575 21.1681 1.40289 21.1663C1.75002 21.1644 2.08265 21.0268 2.32968 20.7829L2.32966 20.7801Z" fill="#65A147"/>
</g>
<defs>
<clipPath id="clip0_29_705">
<rect width="32" height="32" fill="white"/>
</clipPath>
</defs>
</svg>
