<svg xmlns="http://www.w3.org/2000/svg" xmlns:xlink="http://www.w3.org/1999/xlink" viewBox="0 0 800 800"><defs><style>.cls-1{isolation:isolate;}.cls-2{fill:#fff;}.cls-3,.cls-4{mix-blend-mode:multiply;}.cls-3{fill:url(#linear-gradient);}.cls-4{fill:url(#linear-gradient-2);}.cls-5{opacity:0.69;}.cls-6{opacity:0.86;fill:url(#linear-gradient-3);}.cls-7{opacity:0.26;}.cls-8{fill:#3b3b3b;mix-blend-mode:color-dodge;}</style><linearGradient id="linear-gradient" x1="69.15" y1="397.83" x2="730.85" y2="397.83" gradientUnits="userSpaceOnUse"><stop offset="0" stop-color="#91bdff"/><stop offset="0.11" stop-color="#76bdfc"/><stop offset="0.31" stop-color="#4cbcf7"/><stop offset="0.5" stop-color="#2bbcf4"/><stop offset="0.68" stop-color="#13bbf1"/><stop offset="0.86" stop-color="#05bbf0"/><stop offset="1" stop-color="#00bbef"/></linearGradient><linearGradient id="linear-gradient-2" x1="120.09" y1="400" x2="729.21" y2="400" gradientUnits="userSpaceOnUse"><stop offset="0" stop-color="#85a9ff"/><stop offset="0.21" stop-color="#94a4ff"/><stop offset="0.6" stop-color="#ba98ff"/><stop offset="1" stop-color="#e78aff"/></linearGradient><linearGradient id="linear-gradient-3" x1="443.29" y1="614.64" x2="352.65" y2="188.22" gradientUnits="userSpaceOnUse"><stop offset="0" stop-color="#c547ed"/><stop offset="0.15" stop-color="#c955f0"/><stop offset="0.72" stop-color="#d885fb"/><stop offset="1" stop-color="#de97ff"/></linearGradient></defs><g class="cls-1"><g id="Layer_3" data-name="Layer 3"><rect class="cls-2" width="800" height="800"/><path class="cls-2" d="M288.15,427.36v5h6.52v1.91h-6.52v7.38h-2.52V425.4H295v2Z" transform="translate(0 0)"/><path class="cls-2" d="M305.5,441.69l-.4-1.61c-.46.53-1.34,1.94-3.06,1.94-3.07,0-4-1.94-4-4.59v-7.25h2.25v7.27c0,1.44.19,2.81,2.08,2.81,1.34,0,2.17-1.24,2.65-2.3v-7.78h2.24v9.07c0,1,.2,1.58.27,2.44Z" transform="translate(0 0)"/><path class="cls-2" d="M314.18,442a12.23,12.23,0,0,1-4.2-.78l.78-1.87a8.31,8.31,0,0,0,3.47.89c1.71,0,2.19-.66,2.19-1.67s-1.2-1.38-2.59-1.84c-1.74-.55-3.7-1.23-3.7-3.55,0-2.59,2.36-3.35,4.61-3.35a12,12,0,0,1,3.82.76l-.8,1.89a6.6,6.6,0,0,0-3.08-.88c-1.36,0-2.24.4-2.24,1.51,0,.85,1,1.18,2.17,1.56,1.84.58,4.13,1.18,4.13,3.88C318.74,441.09,316.5,442,314.18,442Z" transform="translate(0 0)"/><path class="cls-2" d="M326.39,442c-3.65,0-5.38-2.45-5.38-6,0-3.72,1.69-6.14,5.46-6.14a13.72,13.72,0,0,1,3.78.78l-.78,1.86a8.15,8.15,0,0,0-3-.9c-2.24,0-3.12,1.46-3.12,4.4,0,2.7,1,4.24,3.1,4.24a8.39,8.39,0,0,0,3.12-.91l.78,1.86A12.78,12.78,0,0,1,326.39,442Z" transform="translate(0 0)"/><path class="cls-2" d="M334.75,436.8c.15,2.14,1.06,3.51,3.05,3.51a7.82,7.82,0,0,0,3.5-1l.73,1.77a10.65,10.65,0,0,1-4.43.91c-3.6,0-5.24-2.75-5.24-5.95,0-2.67,1.08-6.17,5.11-6.17s5.18,2.57,5.18,6.92Zm2.74-5.18c-1.35,0-2.64,1-2.77,3.5h5.74C340.39,432.65,339.34,431.62,337.49,431.62Z" transform="translate(0 0)"/><path class="cls-2" d="M353.83,436.8c.15,2.14,1.06,3.51,3.05,3.51a7.78,7.78,0,0,0,3.5-1l.73,1.77a10.65,10.65,0,0,1-4.43.91c-3.6,0-5.24-2.75-5.24-5.95,0-2.67,1.08-6.17,5.11-6.17s5.19,2.57,5.19,6.92Zm2.75-5.18c-1.36,0-2.64,1-2.77,3.5h5.74C359.47,432.65,358.42,431.62,356.58,431.62Z" transform="translate(0 0)"/><path class="cls-2" d="M364.63,441.69V425.15h2.24v16.54Z" transform="translate(0 0)"/><path class="cls-2" d="M372.11,436.8c.15,2.14,1.06,3.51,3.05,3.51a7.82,7.82,0,0,0,3.5-1l.73,1.77A10.65,10.65,0,0,1,375,442c-3.61,0-5.24-2.75-5.24-5.95,0-2.67,1.08-6.17,5.11-6.17s5.19,2.57,5.19,6.92Zm2.75-5.18c-1.37,0-2.65,1-2.78,3.5h5.75C377.75,432.65,376.69,431.62,374.86,431.62Z" transform="translate(0 0)"/><path class="cls-2" d="M397.14,441.69v-7.3c0-1.72-.46-2.77-2.09-2.77a3.32,3.32,0,0,0-2.84,2.42v7.65H390v-7.3c0-2-.68-2.77-2.14-2.77-1.28,0-2.31,1.41-2.67,2.26v7.81h-2.24v-8.87a26.39,26.39,0,0,0-.28-2.64h2l.43,1.64a4.31,4.31,0,0,1,3.1-2,3.61,3.61,0,0,1,3.62,2.1,4.2,4.2,0,0,1,3.53-2.1c2.67,0,4,1.42,4,4.49v7.35Z" transform="translate(0 0)"/><path class="cls-2" d="M404.61,436.8c.16,2.14,1.06,3.51,3.05,3.51a7.78,7.78,0,0,0,3.5-1l.73,1.77a10.69,10.69,0,0,1-4.43.91c-3.6,0-5.24-2.75-5.24-5.95,0-2.67,1.08-6.17,5.11-6.17s5.19,2.57,5.19,6.92Zm2.75-5.18c-1.36,0-2.65,1-2.77,3.5h5.74C410.25,432.65,409.2,431.62,407.36,431.62Z" transform="translate(0 0)"/><path class="cls-2" d="M422.57,441.69v-7.28c0-1.46-.21-2.79-2.17-2.79-1.34,0-2.26,1.23-2.75,2.29v7.78h-2.24v-9.07c0-.95-.2-1.58-.27-2.44h2l.4,1.61c.45-.52,1.43-1.94,3.15-1.94,3.22,0,4.08,1.94,4.08,4.59v7.25Z" transform="translate(0 0)"/><path class="cls-2" d="M433.29,443.73c-2.65-.66-4.58-2.32-4.58-4.89v-6.92h-1.87v-1.76h1.87v-3H431v3h2.67v1.76H431v7c0,1.56,1.21,2.42,3.1,2.8Z" transform="translate(0 0)"/><path class="cls-2" d="M443.54,441.69l-.41-1.61c-.45.53-1.33,1.94-3.05,1.94-3.07,0-4-1.94-4-4.59v-7.25h2.25v7.27c0,1.44.2,2.81,2.08,2.81,1.34,0,2.17-1.24,2.65-2.3v-7.78h2.24v9.07a22.12,22.12,0,0,0,.28,2.44Z" transform="translate(0 0)"/><path class="cls-2" d="M463,441.69v-7.3c0-1.72-.45-2.77-2.09-2.77A3.35,3.35,0,0,0,458,434v7.65h-2.24v-7.3c0-2-.68-2.77-2.14-2.77-1.28,0-2.32,1.41-2.67,2.26v7.81h-2.24v-8.87a26.39,26.39,0,0,0-.28-2.64h2l.43,1.64a4.29,4.29,0,0,1,3.1-2,3.6,3.6,0,0,1,3.62,2.1,4.21,4.21,0,0,1,3.53-2.1c2.67,0,4,1.42,4,4.49v7.35Z" transform="translate(0 0)"/><path class="cls-2" d="M475,427.61V425.4h2.42v2.21Zm.07,14.08V430.18h2.27v11.51Z" transform="translate(0 0)"/><path class="cls-2" d="M488,441.69v-7.28c0-1.46-.2-2.79-2.17-2.79-1.33,0-2.26,1.23-2.74,2.29v7.78h-2.24v-9.07a22.41,22.41,0,0,0-.28-2.44h2l.41,1.61c.45-.52,1.43-1.94,3.14-1.94,3.22,0,4.08,1.94,4.08,4.59v7.25Z" transform="translate(0 0)"/><path class="cls-2" d="M308.4,462.29V455c0-1.71-.45-2.78-2.08-2.78a3.36,3.36,0,0,0-2.85,2.42v7.66h-2.24V455c0-2-.68-2.78-2.14-2.78-1.29,0-2.32,1.42-2.67,2.27v7.81h-2.24v-8.87a26.07,26.07,0,0,0-.28-2.64h2l.43,1.64a4.24,4.24,0,0,1,3.09-2,3.61,3.61,0,0,1,3.63,2.1,4.2,4.2,0,0,1,3.53-2.1c2.67,0,4,1.41,4,4.49v7.35Z" transform="translate(0 0)"/><path class="cls-2" d="M321.35,462.29c0-.1-.38-1.14-.41-1.26a4.36,4.36,0,0,1-3.12,1.56c-2.62,0-4.33-1.08-4.33-3.32s1.33-4.08,6.25-4.08h1v-.73c0-1.21-.36-2.25-2-2.25a9.26,9.26,0,0,0-4.05,1l-.78-1.86a14.26,14.26,0,0,1,4.91-.88c2.44,0,4.15,1.15,4.15,3.67v4.61c0,.91.26,2.19.4,3.53Zm-.56-5.54h-.71c-3.16,0-4.23.78-4.23,2.41,0,1.14,1,1.69,2.32,1.69a3,3,0,0,0,2.62-1.36Z" transform="translate(0 0)"/><path class="cls-2" d="M330.18,462.62a12.52,12.52,0,0,1-4.2-.78l.77-1.87a8.37,8.37,0,0,0,3.48.88c1.71,0,2.19-.65,2.19-1.66s-1.21-1.38-2.59-1.84c-1.74-.55-3.71-1.23-3.71-3.55,0-2.59,2.37-3.35,4.61-3.35a11.81,11.81,0,0,1,3.83.76l-.8,1.89a6.65,6.65,0,0,0-3.08-.89c-1.36,0-2.24.41-2.24,1.51,0,.86,1,1.19,2.17,1.57,1.84.58,4.13,1.18,4.13,3.87C334.74,461.69,332.5,462.62,330.18,462.62Z" transform="translate(0 0)"/><path class="cls-2" d="M341.08,462.62a12.52,12.52,0,0,1-4.2-.78l.78-1.87a8.29,8.29,0,0,0,3.47.88c1.71,0,2.19-.65,2.19-1.66s-1.2-1.38-2.59-1.84c-1.74-.55-3.7-1.23-3.7-3.55,0-2.59,2.36-3.35,4.61-3.35a11.8,11.8,0,0,1,3.82.76l-.8,1.89a6.64,6.64,0,0,0-3.07-.89c-1.36,0-2.25.41-2.25,1.51,0,.86,1,1.19,2.17,1.57,1.84.58,4.13,1.18,4.13,3.87C345.64,461.69,343.4,462.62,341.08,462.62Z" transform="translate(0 0)"/><path class="cls-2" d="M355.77,462.29c0-.1-.39-1.14-.41-1.26a4.38,4.38,0,0,1-3.13,1.56c-2.62,0-4.33-1.08-4.33-3.32s1.34-4.08,6.25-4.08h1v-.73c0-1.21-.35-2.25-2-2.25a9.26,9.26,0,0,0-4.05,1l-.79-1.86a14.35,14.35,0,0,1,4.91-.88c2.44,0,4.16,1.15,4.16,3.67v4.61c0,.91.25,2.19.4,3.53Zm-.56-5.54h-.71c-3.17,0-4.23.78-4.23,2.41,0,1.14,1,1.69,2.32,1.69a3,3,0,0,0,2.62-1.36Z" transform="translate(0 0)"/><path class="cls-2" d="M371.06,462.62a12.56,12.56,0,0,1-4.2-.78l.78-1.87a8.37,8.37,0,0,0,3.48.88c1.71,0,2.19-.65,2.19-1.66s-1.21-1.38-2.59-1.84c-1.74-.55-3.71-1.23-3.71-3.55,0-2.59,2.37-3.35,4.61-3.35a11.85,11.85,0,0,1,3.83.76l-.81,1.89a6.61,6.61,0,0,0-3.07-.89c-1.36,0-2.24.41-2.24,1.51,0,.86,1,1.19,2.16,1.57,1.84.58,4.13,1.18,4.13,3.87C375.62,461.69,373.38,462.62,371.06,462.62Z" transform="translate(0 0)"/><path class="cls-2" d="M380.28,457.4c.16,2.14,1.06,3.51,3.05,3.51a8,8,0,0,0,3.5-1l.73,1.77a10.82,10.82,0,0,1-4.44.9c-3.59,0-5.23-2.75-5.23-5.94,0-2.68,1.08-6.17,5.11-6.17s5.19,2.57,5.19,6.92Zm2.75-5.19c-1.36,0-2.65,1-2.77,3.51H386C385.92,453.25,384.86,452.21,383,452.21Z" transform="translate(0 0)"/><path class="cls-2" d="M398.76,462.29l-.4-1.26a3.46,3.46,0,0,1-2.85,1.56c-3.65,0-5-2.82-5-6.12s1.54-6,4.74-6a3.81,3.81,0,0,1,3.05,1.91v-6.64h2.24v13a22.54,22.54,0,0,0,.27,3.53Zm-.43-7.73c-.48-1-1.28-2.35-2.82-2.35s-2.69,1.07-2.69,4.31c0,3.05.95,4.33,3,4.33a3,3,0,0,0,2.52-1.69Z" transform="translate(0 0)"/><path class="cls-2" d="M415.23,462.59c-3.65,0-5.39-2.44-5.39-6,0-3.72,1.68-6.14,5.46-6.14a13.72,13.72,0,0,1,3.78.78l-.78,1.86a8.18,8.18,0,0,0-3-.91c-2.25,0-3.13,1.47-3.13,4.41,0,2.7,1,4.23,3.1,4.23a8.3,8.3,0,0,0,3.12-.9l.78,1.86A12.7,12.7,0,0,1,415.23,462.59Z" transform="translate(0 0)"/><path class="cls-2" d="M429.22,462.29l-.4-1.61c-.45.53-1.33,1.94-3.05,1.94-3.07,0-4-1.94-4-4.59v-7.25H424v7.28c0,1.43.2,2.79,2.09,2.79,1.34,0,2.17-1.23,2.65-2.29v-7.78H431v9.06c0,1,.2,1.59.27,2.45Z" transform="translate(0 0)"/><path class="cls-2" d="M440.63,452.92a3.06,3.06,0,0,0-1.74-.71c-1.41,0-1.94,2.07-2.24,2.78v7.3h-2.24v-8.94a15.52,15.52,0,0,0-.28-2.57h2l.41,2c.4-.77,1.41-2.34,2.71-2.34a3.85,3.85,0,0,1,2.14.58Z" transform="translate(0 0)"/><path class="cls-2" d="M447,462.62a12.52,12.52,0,0,1-4.2-.78l.77-1.87a8.37,8.37,0,0,0,3.48.88c1.71,0,2.19-.65,2.19-1.66s-1.2-1.38-2.59-1.84c-1.74-.55-3.7-1.23-3.7-3.55,0-2.59,2.37-3.35,4.6-3.35a11.81,11.81,0,0,1,3.83.76l-.8,1.89a6.61,6.61,0,0,0-3.08-.89c-1.35,0-2.23.41-2.23,1.51,0,.86,1,1.19,2.15,1.57,1.85.58,4.14,1.18,4.14,3.87C451.53,461.69,449.29,462.62,447,462.62Z" transform="translate(0 0)"/><path class="cls-2" d="M461.83,462.29l-.41-1.61c-.45.53-1.33,1.94-3,1.94-3.07,0-4-1.94-4-4.59v-7.25h2.24v7.28c0,1.43.21,2.79,2.1,2.79,1.33,0,2.16-1.23,2.64-2.29v-7.78h2.24v9.06a22.31,22.31,0,0,0,.28,2.45Z" transform="translate(0 0)"/><path class="cls-2" d="M470.51,462.62a12.52,12.52,0,0,1-4.2-.78l.78-1.87a8.29,8.29,0,0,0,3.47.88c1.72,0,2.19-.65,2.19-1.66s-1.21-1.38-2.59-1.84c-1.74-.55-3.7-1.23-3.7-3.55,0-2.59,2.37-3.35,4.61-3.35a11.9,11.9,0,0,1,3.83.76l-.81,1.89a6.64,6.64,0,0,0-3.07-.89c-1.36,0-2.24.41-2.24,1.51,0,.86,1,1.19,2.16,1.57,1.84.58,4.13,1.18,4.13,3.87C475.07,461.69,472.83,462.62,470.51,462.62Z" transform="translate(0 0)"/><path class="cls-2" d="M478.19,462.29v-2.42h2.49v2.42Z" transform="translate(0 0)"/><path class="cls-2" d="M270.29,482.88V469.26l-5.06,13.62h-2.4l-5.08-13.62v13.62h-2.37V466.59h4l4.74,12.87,4.81-12.87h3.8v16.29Z" transform="translate(0 0)"/><path class="cls-2" d="M284.13,482.88c0-.09-.38-1.12-.4-1.25a4.36,4.36,0,0,1-3.12,1.56c-2.62,0-4.33-1.08-4.33-3.32s1.33-4.08,6.24-4.08h1v-.74c0-1.21-.35-2.24-2-2.24a9.48,9.48,0,0,0-4,1l-.78-1.86a14.26,14.26,0,0,1,4.91-.88c2.44,0,4.15,1.16,4.15,3.67v4.61c0,.9.26,2.19.41,3.52Zm-.55-5.53h-.71c-3.17,0-4.22.78-4.22,2.41,0,1.14,1,1.69,2.31,1.69a3,3,0,0,0,2.62-1.36Z" transform="translate(0 0)"/><path class="cls-2" d="M291.28,478c.15,2.15,1.06,3.5,3.05,3.5a7.9,7.9,0,0,0,3.5-1l.73,1.76a10.65,10.65,0,0,1-4.43.91c-3.6,0-5.24-2.74-5.24-5.94,0-2.67,1.08-6.17,5.11-6.17s5.19,2.57,5.19,6.92Zm2.74-5.19c-1.35,0-2.64,1-2.76,3.51H297C296.92,473.84,295.86,472.81,294,472.81Z" transform="translate(0 0)"/><path class="cls-2" d="M306.89,483.19c-3.65,0-5.39-2.45-5.39-6,0-3.72,1.69-6.14,5.47-6.14a13.79,13.79,0,0,1,3.78.78l-.79,1.86a8.26,8.26,0,0,0-3-.91c-2.24,0-3.12,1.47-3.12,4.41,0,2.7,1,4.23,3.1,4.23a8.15,8.15,0,0,0,3.12-.91l.78,1.87A12.76,12.76,0,0,1,306.89,483.19Z" transform="translate(0 0)"/><path class="cls-2" d="M315.25,478c.15,2.15,1.06,3.5,3.05,3.5a7.86,7.86,0,0,0,3.49-1l.74,1.76a10.7,10.7,0,0,1-4.44.91c-3.59,0-5.23-2.74-5.23-5.94,0-2.67,1.08-6.17,5.11-6.17s5.19,2.57,5.19,6.92Zm2.74-5.19c-1.35,0-2.64,1-2.77,3.51H321C320.89,473.84,319.83,472.81,318,472.81Z" transform="translate(0 0)"/><path class="cls-2" d="M333.2,482.88v-7.27c0-1.46-.2-2.8-2.16-2.8-1.34,0-2.27,1.24-2.75,2.3v7.77h-2.24v-9.06c0-.95-.21-1.58-.28-2.44h2l.41,1.61a4.19,4.19,0,0,1,3.14-1.94c3.22,0,4.08,1.94,4.08,4.59v7.24Z" transform="translate(0 0)"/><path class="cls-2" d="M346.14,482.88c0-.09-.38-1.12-.4-1.25a4.4,4.4,0,0,1-3.13,1.56c-2.62,0-4.32-1.08-4.32-3.32s1.33-4.08,6.24-4.08h1v-.74c0-1.21-.35-2.24-2-2.24a9.49,9.49,0,0,0-4.06,1l-.78-1.86a14.36,14.36,0,0,1,4.92-.88c2.44,0,4.15,1.16,4.15,3.67v4.61c0,.9.25,2.19.4,3.52Zm-.55-5.53h-.71c-3.17,0-4.23.78-4.23,2.41,0,1.14,1,1.69,2.32,1.69a3,3,0,0,0,2.62-1.36Z" transform="translate(0 0)"/><path class="cls-2" d="M355,483.21a12.29,12.29,0,0,1-4.21-.78l.78-1.86a8.33,8.33,0,0,0,3.48.88c1.71,0,2.19-.65,2.19-1.66s-1.21-1.38-2.59-1.84c-1.74-.55-3.71-1.23-3.71-3.55,0-2.59,2.37-3.35,4.61-3.35a11.85,11.85,0,0,1,3.83.76l-.81,1.89a6.61,6.61,0,0,0-3.07-.89c-1.36,0-2.24.41-2.24,1.52,0,.85,1,1.18,2.17,1.55,1.84.58,4.13,1.19,4.13,3.88C359.54,482.28,357.29,483.21,355,483.21Z" transform="translate(0 0)"/><path class="cls-2" d="M378.29,474.85v12.57h-2.24v-5.76a3.88,3.88,0,0,1-3.07,1.55c-3.43,0-4.71-2.82-4.71-6s1.44-6.15,4.83-6.15a3.88,3.88,0,0,1,3,1.94l.45-1.61h2A22.15,22.15,0,0,0,378.29,474.85Zm-2.19.23c-.45-1.1-1.39-2.27-2.57-2.27-2,0-2.95,1.34-2.95,4.33,0,3.25,1.19,4.31,2.7,4.31a3.09,3.09,0,0,0,2.82-1.69Z" transform="translate(0 0)"/><path class="cls-2" d="M389.16,482.88l-.4-1.61c-.45.53-1.33,1.94-3,1.94-3.07,0-4-1.94-4-4.58v-7.25H384v7.27c0,1.44.2,2.8,2.09,2.8,1.34,0,2.17-1.23,2.65-2.29v-7.78h2.24v9.07c0,.95.2,1.58.27,2.43Z" transform="translate(0 0)"/><path class="cls-2" d="M394.3,468.81v-2.22h2.42v2.22Zm.08,14.07v-11.5h2.26v11.5Z" transform="translate(0 0)"/><path class="cls-2" d="M403.59,483.21a12.27,12.27,0,0,1-4.2-.78l.78-1.86a8.29,8.29,0,0,0,3.47.88c1.71,0,2.19-.65,2.19-1.66s-1.21-1.38-2.59-1.84c-1.74-.55-3.7-1.23-3.7-3.55,0-2.59,2.36-3.35,4.61-3.35a11.85,11.85,0,0,1,3.82.76l-.8,1.89a6.65,6.65,0,0,0-3.08-.89c-1.35,0-2.24.41-2.24,1.52,0,.85,1,1.18,2.17,1.55,1.84.58,4.13,1.19,4.13,3.88C408.15,482.28,405.91,483.21,403.59,483.21Z" transform="translate(0 0)"/><path class="cls-2" d="M423.68,473.52a3.1,3.1,0,0,0-1.74-.71c-1.4,0-1.94,2.07-2.24,2.78v7.29h-2.24V474a17,17,0,0,0-.27-2.57h2l.41,2c.4-.77,1.41-2.34,2.72-2.34a3.9,3.9,0,0,1,2.14.58Z" transform="translate(0 0)"/><path class="cls-2" d="M426.47,468.81v-2.22h2.42v2.22Zm.08,14.07v-11.5h2.27v11.5Z" transform="translate(0 0)"/><path class="cls-2" d="M435.77,483.21a12.33,12.33,0,0,1-4.21-.78l.79-1.86a8.25,8.25,0,0,0,3.47.88c1.71,0,2.19-.65,2.19-1.66s-1.21-1.38-2.59-1.84c-1.75-.55-3.71-1.23-3.71-3.55,0-2.59,2.37-3.35,4.61-3.35a11.75,11.75,0,0,1,3.82.76l-.8,1.89a6.61,6.61,0,0,0-3.07-.89c-1.36,0-2.24.41-2.24,1.52,0,.85,1,1.18,2.16,1.55,1.84.58,4.13,1.19,4.13,3.88C440.32,482.28,438.08,483.21,435.77,483.21Z" transform="translate(0 0)"/><path class="cls-2" d="M450.62,482.88l-.4-1.61c-.46.53-1.34,1.94-3.05,1.94-3.07,0-4-1.94-4-4.58v-7.25h2.24v7.27c0,1.44.2,2.8,2.09,2.8,1.33,0,2.17-1.23,2.65-2.29v-7.78h2.23v9.07c0,.95.21,1.58.28,2.43Z" transform="translate(0 0)"/><path class="cls-2" d="M459.31,483.21a12.29,12.29,0,0,1-4.21-.78l.78-1.86a8.33,8.33,0,0,0,3.48.88c1.71,0,2.19-.65,2.19-1.66s-1.21-1.38-2.59-1.84c-1.75-.55-3.71-1.23-3.71-3.55,0-2.59,2.37-3.35,4.61-3.35a11.85,11.85,0,0,1,3.83.76l-.81,1.89a6.61,6.61,0,0,0-3.07-.89c-1.36,0-2.24.41-2.24,1.52,0,.85,1,1.18,2.16,1.55,1.85.58,4.13,1.19,4.13,3.88C463.86,482.28,461.63,483.21,459.31,483.21Z" transform="translate(0 0)"/><path class="cls-2" d="M480.33,482.88v-7.27c0-1.46-.2-2.8-2.17-2.8-1.33,0-2.26,1.24-2.74,2.3v7.77h-2.24v-9.06a22.41,22.41,0,0,0-.28-2.44h2l.4,1.61c.46-.53,1.43-1.94,3.15-1.94,3.22,0,4.08,1.94,4.08,4.59v7.24Z" transform="translate(0 0)"/><path class="cls-2" d="M485.94,468.81v-2.22h2.42v2.22Zm.08,14.07v-11.5h2.26v11.5Z" transform="translate(0 0)"/><path class="cls-2" d="M496.74,483.19a3.49,3.49,0,0,1-2.84-1.56l-.41,1.25h-2a23.58,23.58,0,0,0,.27-3.52v-13H494V473a3.91,3.91,0,0,1,3.1-1.91c3.43,0,4.68,2.79,4.68,6S500.16,483.19,496.74,483.19Zm0-10.38c-1.56,0-2.37,1.44-2.85,2.35v4.6a2.74,2.74,0,0,0,2.52,1.69c1.84,0,3-1.29,3-4.33C499.44,473.82,498.28,472.81,496.77,472.81Z" transform="translate(0 0)"/><path class="cls-2" d="M511.75,482.88v-7.22c0-1.56-.25-2.85-2.17-2.85-1.38,0-2.29,1.29-2.74,2.3v7.77h-2.25V466.34h2.25V473a3.86,3.86,0,0,1,3.1-1.94c3.22,0,4.05,2,4.05,4.51v7.32Z" transform="translate(0 0)"/><path class="cls-2" d="M517.69,482.88v-2.41h2.49v2.41Z" transform="translate(0 0)"/><path class="cls-2" d="M237.93,368.27l-7.66-18.65-1.48-.53v-1.53h4.76c1.9,0,2.32.52,3,2.16l5.07,13.11L246.65,350l-2-1v-1.47h7.61V349l-2,1-6.81,17.54v13.58l2.33,1.64v1.74h-10.2V382.8l2.32-1.64Z" transform="translate(0 0)"/><path class="cls-2" d="M276.35,375.19c0,6-4.12,9.88-10.62,9.88s-10.57-4-10.57-9.88V356.8c0-5.91,4.13-9.88,10.57-9.88s10.62,3.91,10.62,9.88Zm-15.69,0c0,4.12,1.59,6.34,5.07,6.34s5.18-2.9,5.18-6.34V356.8c0-3.48-1.64-6.34-5.18-6.34s-5.07,2.17-5.07,6.34Z" transform="translate(0 0)"/><path class="cls-2" d="M299.76,375.09V350.52l-2-1.38V347.5h7.76v1.64l-2,1.38v24.67c0,7.08-4.33,9.83-9.83,9.88s-9.94-3.12-9.94-9.88V350.62L281.43,349V347.5h10.2V349l-2.33,1.59v24.57c0,4.39,2,6.13,5.18,6.13C298.07,381.32,299.76,379.52,299.76,375.09Z" transform="translate(0 0)"/><path class="cls-2" d="M322.6,372.92c-1.06-2.86-2-3.6-5.13-3.6v12.11L319.8,383v1.53h-10V383l2.32-1.58v-31L310.13,349V347.5h10.72c5.71,0,10.36,2.17,10.36,8.61v4.82c0,4.54-2.54,7.08-6,7.76a5.55,5.55,0,0,1,2.85,3.49l2.48,6.81c.53,1.43,1.48,3.49,3.18,3.13v2.05a9.6,9.6,0,0,1-3.86.69c-3.33,0-3.65-2.38-4.71-5.18Zm-5.18-22.14v15.48h3.38c3.54,0,4.92-1.95,4.92-5.33v-4.82c0-3.37-1.22-5.33-4.87-5.33Z" transform="translate(0 0)"/><path class="cls-2" d="M359.12,350.83V381.1l2.32,1.65v1.79H351.25v-1.79l2.32-1.65V350.83h-4l-1.7,6.08h-2.54l.22-9.41h21.5l.22,9.41h-2.54l-1.8-6.08Z" transform="translate(0 0)"/><path class="cls-2" d="M370.8,384.54V383l2.38-1.58V350.25l-2-1.37V347.5H390v8.3h-2.64l-1.49-5.18h-7.18v13.9h5.08l1.37-2.91h1.58v8.93h-1.58l-1.37-2.8h-5.08v11.68a1.44,1.44,0,0,1-1.11,1.63v.27h9l1.8-5.07h2.32v8.29Z" transform="translate(0 0)"/><path class="cls-2" d="M406.05,359.92l4.81-10L409,349V347.5h7.34v1.59l-1.84.9-6.88,14.11,7.08,18,1.91,1.1v1.32H411.7c-1.53,0-2.16-.11-3-2.12l-4.54-11.3-5.29,10.94,2,.95v1.53h-7.67V383l2-1,7.46-15.27-6.55-16.91-1.54-.95V347.5h4.81c1.53,0,2,.22,2.86,2.12Z" transform="translate(0 0)"/><path class="cls-2" d="M432.42,350.83V381.1l2.33,1.65v1.79h-10.2v-1.79l2.32-1.65V350.83h-4l-1.7,6.08h-2.53l.21-9.41H440.4l.21,9.41h-2.54l-1.79-6.08Z" transform="translate(0 0)"/><path class="cls-2" d="M454,349V347.5h9.35V349l-2,1.38v13.74h8.56V350.41l-2-1.38V347.5h9.35V349l-2,1.38v31.33L477.6,383v1.53h-10V383l2.33-1.27V367.16h-8.56v14.58l2.38,1.27v1.53H453.62V383l2.37-1.27V350.41Z" transform="translate(0 0)"/><path class="cls-2" d="M482.16,384.54V383l2.37-1.58V350.25l-2-1.37V347.5h18.81v8.3h-2.64l-1.48-5.18H490v13.9h5.07l1.38-2.91h1.58v8.93h-1.58l-1.38-2.8H490v11.68a1.44,1.44,0,0,1-1.11,1.63v.27h9l1.8-5.07H502v8.29Z" transform="translate(0 0)"/><path class="cls-2" d="M519.25,372.92c-1.06-2.86-2-3.6-5.12-3.6v12.11l2.33,1.58v1.53H506.41V383l2.32-1.58v-31l-2-1.38V347.5h10.73c5.7,0,10.36,2.17,10.36,8.61v4.82c0,4.54-2.54,7.08-6,7.76a5.55,5.55,0,0,1,2.85,3.49l2.48,6.81c.52,1.43,1.48,3.49,3.17,3.13v2.05a9.57,9.57,0,0,1-3.86.69c-3.33,0-3.64-2.38-4.7-5.18Zm-5.17-22.14v15.48h3.38c3.53,0,4.91-1.95,4.91-5.33v-4.82c0-3.37-1.22-5.33-4.86-5.33Z" transform="translate(0 0)"/><path class="cls-2" d="M533.58,384.54V383l2.37-1.58V350.25l-2-1.37V347.5h18.82v8.3h-2.65l-1.48-5.18h-7.18v13.9h5.07l1.38-2.91h1.58v8.93H547.9l-1.38-2.8h-5.07v11.68a1.44,1.44,0,0,1-1.11,1.63v.27h9l1.8-5.07h2.33v8.29Z" transform="translate(0 0)"/><path class="cls-3" d="M379.71,204.06C255,335.93,160.94,132,93.1,294.29-2,521.78,207.49,652.81,347.58,656.73c113.23,3.16,340.58-83.18,379.14-273.8S525.08,50.29,379.71,204.06Z" transform="translate(0 0)"/><path class="cls-4" d="M135.51,208.18c194.16,166.15-100.24,117,38.56,376.57,96.41,180.33,266.34,112,471.68-20.56,224.91-145.23-85.4-198.61-1.29-321.31C784.55,38.53,1.85,93.8,135.51,208.18Z" transform="translate(0 0)"/><g class="cls-5"><polygon class="cls-2" points="141.69 464.41 140.5 463.67 342.05 143.64 342.64 144.01 662.08 345.19 661.33 346.37 342.49 145.58 141.69 464.41"/><polygon class="cls-2" points="154.23 461.56 153.04 460.82 344.9 156.18 345.49 156.56 649.53 348.04 648.78 349.22 345.34 158.12 154.23 461.56"/><polygon class="cls-2" points="166.78 458.71 165.59 457.97 347.75 168.73 348.34 169.1 636.99 350.89 636.24 352.07 348.19 170.66 166.78 458.71"/><polygon class="cls-2" points="179.32 455.87 178.13 455.12 350.6 181.27 351.19 181.64 624.45 353.73 623.7 354.92 351.04 183.21 179.32 455.87"/><polygon class="cls-2" points="191.86 453.02 190.67 452.27 353.44 193.81 354.04 194.19 611.9 356.58 611.15 357.77 353.88 195.75 191.86 453.02"/><polygon class="cls-2" points="204.41 450.17 203.22 449.42 356.29 206.35 356.89 206.73 599.36 359.43 598.61 360.62 356.73 208.29 204.41 450.17"/><polygon class="cls-2" points="216.95 447.32 215.76 446.57 359.14 218.9 359.74 219.27 586.82 362.28 586.07 363.47 359.58 220.83 216.95 447.32"/><polygon class="cls-2" points="229.49 444.47 228.3 443.72 361.99 231.44 362.59 231.82 574.27 365.13 573.52 366.32 362.43 233.38 229.49 444.47"/><polygon class="cls-2" points="242.03 441.62 240.85 440.87 364.84 243.98 561.73 367.98 560.98 369.17 365.28 245.92 242.03 441.62"/><polygon class="cls-2" points="254.58 438.77 253.39 438.02 367.69 256.53 549.19 370.83 548.44 372.02 368.13 258.46 254.58 438.77"/><polygon class="cls-2" points="267.12 435.92 265.93 435.17 370.54 269.07 536.64 373.68 535.89 374.87 370.98 271.01 267.12 435.92"/><polygon class="cls-2" points="279.66 433.07 278.48 432.32 373.39 281.61 524.1 376.53 523.35 377.71 373.83 283.55 279.66 433.07"/><polygon class="cls-2" points="292.21 430.22 291.02 429.47 376.24 294.16 511.56 379.38 510.81 380.56 376.68 296.09 292.21 430.22"/><polygon class="cls-2" points="304.75 427.37 303.56 426.63 379.09 306.7 379.68 307.07 499.01 382.23 498.26 383.42 379.53 308.64 304.75 427.37"/><polygon class="cls-2" points="317.29 424.52 316.11 423.78 381.94 319.24 382.53 319.62 486.47 385.08 485.72 386.26 382.38 321.18 317.29 424.52"/><polygon class="cls-2" points="329.84 421.68 328.65 420.93 384.79 331.79 385.38 332.16 473.93 387.93 473.18 389.11 385.23 333.72 329.84 421.68"/><polygon class="cls-2" points="342.38 418.82 341.19 418.08 387.64 344.33 461.38 390.77 460.64 391.96 388.08 346.27 342.38 418.82"/></g><path class="cls-6" d="M669.7,350.35c-.35,66.59-34.17,120-83.88,171.68-25.58,26.52-55.26,52.37-88.91,71.66-33.33,19.06-71.75,28.55-107.29,23.29-85.74-12.92-146.72-69-198.38-105.52-50.54-35.83-81.35-71.24-81.69-133.17.28-62,27-125.6,81.73-152.77,24.36-12,55.41-13.39,88.85-7.3C314,224.44,349,236.1,389.62,238.88c36.58,2.57,74-3.74,108.75-11.12,33.13-7,63.92-12.42,89-7.35C639.52,231.24,669.36,283.7,669.7,350.35Z" transform="translate(0 0)"/><g class="cls-7"><polygon class="cls-2" points="715.23 420.19 716.11 421.39 392.95 659.5 392.51 658.9 154.84 336.34 156.04 335.46 393.27 657.41 715.23 420.19"/><polygon class="cls-2" points="701.73 418.15 702.61 419.34 395 646 394.56 645.4 168.34 338.39 169.54 337.5 395.31 643.92 701.73 418.15"/><polygon class="cls-2" points="688.23 416.1 689.11 417.3 397.04 632.5 396.6 631.9 181.84 340.43 183.04 339.55 397.36 630.42 688.23 416.1"/><polygon class="cls-2" points="674.73 414.06 675.62 415.25 399.09 619 398.65 618.41 195.34 342.48 196.54 341.59 399.4 616.92 674.73 414.06"/><polygon class="cls-2" points="661.23 412.01 662.12 413.21 401.13 605.51 400.69 604.91 208.84 344.52 210.03 343.64 401.45 603.42 661.23 412.01"/><polygon class="cls-2" points="647.74 409.96 648.62 411.16 403.18 592.01 402.74 591.41 222.33 346.57 223.53 345.68 403.5 589.93 647.74 409.96"/><polygon class="cls-2" points="634.24 407.92 635.12 409.12 405.23 578.51 404.78 577.91 235.83 348.61 237.03 347.73 405.54 576.43 634.24 407.92"/><polygon class="cls-2" points="620.74 405.87 621.63 407.07 407.27 565.01 406.83 564.41 249.33 350.66 250.53 349.77 407.59 562.93 620.74 405.87"/><polygon class="cls-2" points="607.24 403.83 608.13 405.03 409.32 551.52 262.83 352.7 264.02 351.82 409.63 549.43 607.24 403.83"/><polygon class="cls-2" points="593.75 401.78 594.63 402.98 411.36 538.02 276.32 354.75 277.52 353.87 411.68 535.94 593.75 401.78"/><polygon class="cls-2" points="580.25 399.74 581.13 400.94 413.41 524.52 289.82 356.8 291.02 355.91 413.72 522.44 580.25 399.74"/><polygon class="cls-2" points="566.75 397.69 567.63 398.89 415.45 511.02 303.32 358.84 304.52 357.96 415.77 508.94 566.75 397.69"/><polygon class="cls-2" points="553.25 395.65 554.13 396.85 417.5 497.53 316.82 360.89 318.02 360 417.81 495.44 553.25 395.65"/><polygon class="cls-2" points="539.76 393.6 540.64 394.8 419.54 484.03 419.1 483.43 330.32 362.93 331.51 362.05 419.86 481.95 539.76 393.6"/><polygon class="cls-2" points="526.26 391.56 527.14 392.75 421.59 470.53 421.15 469.93 343.81 364.98 345.01 364.09 421.9 468.45 526.26 391.56"/><polygon class="cls-2" points="512.76 389.51 513.64 390.71 423.63 457.03 423.19 456.43 357.31 367.02 358.51 366.14 423.95 454.95 512.76 389.51"/><polygon class="cls-2" points="499.26 387.47 500.15 388.67 425.68 443.53 370.81 369.07 372.01 368.18 425.99 441.45 499.26 387.47"/></g><path class="cls-8" d="M420.08,632.54a140.61,140.61,0,0,1-20.47-1.47c-73-11-127.43-51.72-175.43-87.63-9.66-7.23-18.78-14.05-27.72-20.37-29.3-20.77-48.19-38.76-61.23-58.31-15.09-22.61-22.51-48.33-22.68-78.62.15-33,7.41-64.77,21-91.88,14.78-29.48,36.6-52,63.1-65.17,15-7.41,33.16-11.17,53.85-11.17a211.93,211.93,0,0,1,37.6,3.62c11.63,2.14,23.21,4.86,35.47,7.74,24,5.64,48.8,11.48,76.27,13.36,5.61.39,11.46.59,17.38.59,32.89,0,65.69-6,93.44-11.94,21.85-4.63,47-9.57,68.85-9.57A112.44,112.44,0,0,1,602,223.78c26,5.39,47.67,21.12,62.66,45.48,14.46,23.51,22.2,54.05,22.37,88.32-.31,60.3-26.83,114.62-86,176.15-30.77,31.9-60.56,55.91-91.08,73.41C480.85,623.76,449.79,632.54,420.08,632.54ZM250.5,220.06c-20.35,0-38.15,3.68-52.91,10.95-60.73,30.16-82.65,99.91-82.9,155.13.36,63.81,32,99,83,135.18,9,6.33,18.09,13.17,27.76,20.4,47.8,35.77,102,76.3,174.47,87.23a139,139,0,0,0,20.15,1.45c29.33,0,60-8.69,88.77-25.12,30.34-17.39,60-41.28,90.6-73,58.75-61.1,85.09-115,85.4-174.67-.36-70.64-32.28-121.12-83.31-131.7a109.75,109.75,0,0,0-22-2c-21.65,0-46.66,4.91-68.41,9.52-27.86,5.92-60.79,12-93.88,12-6,0-11.87-.2-17.53-.6-27.65-1.89-52.54-7.74-76.61-13.4-12.23-2.88-23.79-5.59-35.37-7.72A209.27,209.27,0,0,0,250.5,220.06Z" transform="translate(0 0)"/><path class="cls-8" d="M419.51,626.77a135.56,135.56,0,0,1-19.89-1.44c-71-10.7-123.89-50.27-170.55-85.18-9.39-7-18.26-13.66-26.94-19.8-28.49-20.2-46.85-37.68-59.54-56.69-14.67-22-21.88-47-22-76.43.14-32.08,7.21-63,20.42-89.33,14.36-28.65,35.57-50.55,61.33-63.34,14.63-7.21,32.25-10.87,52.36-10.87a206.31,206.31,0,0,1,36.55,3.52c11.31,2.08,22.56,4.73,34.48,7.53,23.32,5.48,47.44,11.15,74.15,13,5.45.38,11.14.58,16.9.58,32,0,63.85-5.87,90.83-11.61,21.24-4.5,45.68-9.3,66.93-9.3a109.41,109.41,0,0,1,21.83,2c25.28,5.24,46.34,20.53,60.91,44.21,14.06,22.86,21.58,52.55,21.75,85.87-.3,58.62-26.08,111.43-83.6,171.24-29.91,31-58.87,54.35-88.54,71.36C478.59,618.23,448.39,626.77,419.51,626.77Zm-164.85-401c-19.79,0-37.09,3.59-51.43,10.65-59,29.32-80.35,97.13-80.6,150.81.35,62,31.13,96.28,80.7,131.42,8.71,6.15,17.58,12.8,27,19.83,46.47,34.77,99.14,74.17,169.61,84.79a134.23,134.23,0,0,0,19.59,1.42c28.52,0,58.36-8.45,86.3-24.42,29.5-16.91,58.31-40.14,88.08-71,57.11-59.4,82.72-111.77,83-169.8-.35-68.68-31.39-117.75-81-128a106.69,106.69,0,0,0-21.41-2c-21,0-45.36,4.78-66.5,9.26-27.08,5.76-59.1,11.65-91.26,11.65-5.81,0-11.54-.19-17-.58-26.88-1.84-51.08-7.53-74.49-13-11.89-2.8-23.12-5.44-34.38-7.51A203.85,203.85,0,0,0,254.66,225.77Z" transform="translate(0 0)"/></g></g></svg>